<svg id="Layer_1" data-name="Layer 1" xmlns="http://www.w3.org/2000/svg" viewBox="0 0 512 512"><defs><style>.cls-1{fill:#fff;}.cls-2{fill:none;stroke:#fff;stroke-miterlimit:10;stroke-width:24px;}</style></defs><path class="cls-1" d="M340.11,310.33q0,13.17-4.73,23.12a47.4,47.4,0,0,1-13,16.68,58.36,58.36,0,0,1-19.17,10.24A75.31,75.31,0,0,1,280,363.88H189.91V156.12h99.78a33.8,33.8,0,0,1,17.59,4.69A45.23,45.23,0,0,1,320.67,173a57.7,57.7,0,0,1,8.54,17,63.11,63.11,0,0,1,3,19.17,61.68,61.68,0,0,1-6.83,28.53,43.39,43.39,0,0,1-20,19.75,48,48,0,0,1,25.34,18.87Q340.1,289.85,340.11,310.33Zm-114-119.68V243h48.31a20.4,20.4,0,0,0,15.62-7q6.44-7,6.44-19.31,0-12-5.91-19a18.32,18.32,0,0,0-14.57-7Zm77.46,112.08a33.46,33.46,0,0,0-1.71-10.68,30.61,30.61,0,0,0-4.6-8.93,22,22,0,0,0-6.82-6,17.56,17.56,0,0,0-8.67-2.19H226.15v54.72H280a21.49,21.49,0,0,0,9.32-2,22.41,22.41,0,0,0,7.48-5.71,28,28,0,0,0,5-8.63A30.29,30.29,0,0,0,303.61,302.73Z"/><circle class="cls-2" cx="256" cy="256" r="166.22"/></svg>