<svg id="Layer_1" data-name="Layer 1" xmlns="http://www.w3.org/2000/svg" viewBox="0 0 512 512"><defs><style>.cls-1{fill:#fff;}.cls-2{fill:none;stroke:#fff;stroke-miterlimit:10;stroke-width:20px;}</style></defs><path class="cls-1" d="M88.58,307.39s4,9.9,17.39,10.7h97.94V193.92H106c-13.38.8-17.39,10.7-17.39,10.7-5.62,9.64-5.62,50-5.62,50S83,297.75,88.58,307.39Z"/><path class="cls-2" d="M88.58,307.39s4,9.9,17.39,10.7H193.9V406c.8,13.38,10.7,17.39,10.7,17.39,9.64,5.62,50,5.62,50,5.62s43.09,0,52.73-5.62c0,0,9.9-4,10.7-17.39l0-87.93h88c13.38-.8,17.39-10.7,17.39-10.7,5.62-9.64,5.62-50.05,5.62-50.05s0-43.09-5.62-52.73c0,0-4-9.9-17.39-10.7l-87.93,0V106c-.8-13.38-10.7-17.39-10.7-17.39C297.75,83,257.34,83,257.34,83s-43.09,0-52.73,5.62c0,0-9.9,4-10.7,17.39v87.95H106c-13.38.8-17.39,10.7-17.39,10.7-5.62,9.64-5.62,50-5.62,50S83,297.75,88.58,307.39Z"/></svg>