<svg id="Layer_1" data-name="Layer 1" xmlns="http://www.w3.org/2000/svg" viewBox="0 0 512 512"><defs><style>.cls-1{fill:none;stroke:#fff;stroke-miterlimit:10;stroke-width:20px;}</style></defs><path class="cls-1" d="M423.42,204.61s-4-9.9-17.39-10.7H318.1V106c-.8-13.38-10.7-17.39-10.7-17.39C297.75,83,257.34,83,257.34,83s-43.09,0-52.73,5.62c0,0-9.9,4-10.7,17.39l0,87.93H106c-13.38.8-17.39,10.7-17.39,10.7-5.62,9.64-5.62,50-5.62,50s0,43.09,5.62,52.73c0,0,4,9.9,17.39,10.7l87.93,0V406c.8,13.38,10.7,17.39,10.7,17.39,9.64,5.62,50,5.62,50,5.62s43.09,0,52.73-5.62c0,0,9.9-4,10.7-17.39V318.08H406c13.38-.8,17.39-10.7,17.39-10.7,5.62-9.64,5.62-50.05,5.62-50.05S429,214.25,423.42,204.61Z"/></svg>