<svg id="Layer_1" data-name="Layer 1" xmlns="http://www.w3.org/2000/svg" viewBox="0 0 512 512"><defs><style>.cls-1,.cls-2{fill:none;stroke:#fff;stroke-miterlimit:10;}.cls-1{stroke-width:24px;}.cls-2{stroke-width:20px;}</style></defs><circle class="cls-1" cx="256" cy="256" r="166.22"/><path class="cls-2" d="M340.43,114.35l-8.43-.07c-15.8-.82-38.83,5.69-63.54,18-7.46,3.7-13.95,6.66-14.42,6.57s-6.55-3.11-13.51-6.72c-13.84-7.17-35.19-14.86-47-16.93a84.09,84.09,0,0,0-15.67-.9c-1.06,0-2,.09-2.81.11"/><path class="cls-2" d="M387.34,355.31c1.18-7.76-.76-21.09-5.08-34.54-9.77-30.41-42.43-87-72.43-125.46l-9.44-12.11,10.22-9.57c13.33-12.5,22.59-20,32.59-26.33,7-4.44,16.6-8.42,22.08-9.28"/><path class="cls-2" d="M142.86,380.68a21,21,0,0,1-1.11-7.31c0-20.34,21.92-56,59.42-96.58,21.3-23.07,51-50.1,54.18-49.37,6.24,1.42,56.11,51.05,74.78,74.41,27.08,33.9,40.73,62.14,37.47,77"/><path class="cls-2" d="M143.23,138.07c2.11-.08,4.64.71,8.62,2.08,12.27,4.22,25.37,13.45,45.68,32.19l11.85,10.93-6.47,8.12c-30,37.66-61.76,91-73.72,124.06-6,16.45-8.65,32.95-6.91,41.37"/></svg>