<svg id="Layer_1" data-name="Layer 1" xmlns="http://www.w3.org/2000/svg" viewBox="0 0 512 512"><defs><style>.cls-1{fill:none;stroke:#fff;stroke-miterlimit:10;stroke-width:24px;}.cls-2{fill:#fff;}</style></defs><path class="cls-1" d="M139.45,92.21H363.78c2.57,0,5,.71,7.57,1.09,29.33,4.41,14.58,32.38,13.66,35.17-8.75,26.71-43.61,149.18,17.11,245.72a30.76,30.76,0,0,0,1.95,2.73c4.24,5.37,20.15,28.46-8.32,40.76a26.56,26.56,0,0,1-10.48,2.11H260.73a26.82,26.82,0,0,1-5.79-.64C233.75,414.53,112.4,382.06,100.08,243c0-.57-.09-1.14-.11-1.72-.34-9-2.71-86,14.45-131.94A26.66,26.66,0,0,1,139.45,92.21Z"/><path class="cls-2" d="M177.69,290.51V192.63H200.3v78h47.42v19.85Z"/><path class="cls-2" d="M316.65,212.48H286.87v78H264.26v-78H234.35V192.63h82.3Z"/></svg>