<svg id="Layer_1" data-name="Layer 1" xmlns="http://www.w3.org/2000/svg" viewBox="0 0 512 512"><defs><style>.cls-1{fill:none;stroke:#fff;stroke-miterlimit:10;stroke-width:20px;}.cls-2{fill:#fff;}</style></defs><path class="cls-1" d="M415.84,191.87H94.16A38,38,0,0,0,56.23,229.8v12.33a38,38,0,0,0,37.93,37.93h76V387.79a25.61,25.61,0,0,0,25.54,25.54H316.28a25.61,25.61,0,0,0,25.54-25.54V280.06h74a38,38,0,0,0,37.93-37.93V229.8A38,38,0,0,0,415.84,191.87Z"/><path class="cls-2" d="M216.79,359.06V249.45h25.32v87.38h53.1v22.23Z"/><polygon class="cls-2" points="173.87 98.67 255.67 167.2 338.13 98.67 173.87 98.67"/></svg>