<svg id="Layer_1" data-name="Layer 1" xmlns="http://www.w3.org/2000/svg" viewBox="0 0 512 512"><defs><style>.cls-1{fill:none;stroke:#fff;stroke-miterlimit:10;stroke-width:27px;}.cls-2{fill:#fff;}</style></defs><path class="cls-1" d="M445.35,207.86l-53.58-53.59a42.67,42.67,0,0,0-27.85-12.48c-50.9-2.74-207-4.61-293.92,67L52.63,333.48a33.13,33.13,0,0,0,32.81,37.7H402.87a30,30,0,0,0,27.38-17.73c9.79-21.82,24.93-61.54,29.22-106.37A48.91,48.91,0,0,0,445.35,207.86Z"/><path class="cls-2" d="M181.73,306.29V208.41h22.61v78h47.42v19.85Z"/><path class="cls-2" d="M343.3,281.2a22.22,22.22,0,0,1-2.62,11,22.79,22.79,0,0,1-7.16,7.79,34.28,34.28,0,0,1-10.62,4.69,50.88,50.88,0,0,1-12.82,1.58h-47.7V208.41h54.45a19.46,19.46,0,0,1,9.24,2.2,23.07,23.07,0,0,1,7,5.72,26.46,26.46,0,0,1,4.48,8,27.27,27.27,0,0,1,1.59,9.17,26.32,26.32,0,0,1-3.52,13.23,22.17,22.17,0,0,1-10.54,9.38,25.34,25.34,0,0,1,13.3,8.82Q343.3,271.28,343.3,281.2ZM285,227.71V248h22.19a9.86,9.86,0,0,0,6.62-2.48q2.9-2.48,2.9-7.72c0-3.21-.86-5.69-2.55-7.44a8.27,8.27,0,0,0-6.14-2.62Zm35.29,48.94a11.7,11.7,0,0,0-2.62-7.72,8.24,8.24,0,0,0-6.62-3.17H285v21.37h25.09a9.93,9.93,0,0,0,7.31-2.9A10.24,10.24,0,0,0,320.28,276.65Z"/></svg>