<svg id="Layer_1" data-name="Layer 1" xmlns="http://www.w3.org/2000/svg" viewBox="0 0 512 512"><defs><style>.cls-1,.cls-2{fill:none;stroke:#fff;stroke-miterlimit:10;}.cls-1{stroke-width:15px;}.cls-2{stroke-width:20px;}.cls-3{fill:#fff;}</style></defs><circle class="cls-1" cx="256" cy="256" r="117.48"/><circle class="cls-2" cx="256" cy="256" r="174.64"/><path class="cls-3" d="M222,308.36V198.75h25.31v87.38h53.11v22.23Z"/><path class="cls-3" d="M89.83,145.94l-9.94-7.43L11.36,253.09,79.89,368.6l9.94-8.37c-21.28-29.17-34.06-66.48-34.06-107.14S68.55,175.11,89.83,145.94Z"/><path class="cls-3" d="M363.11,88.83l7.43-9.94L256,10.36,140.46,78.89l8.36,9.94C178,67.55,215.3,54.77,256,54.77S333.94,67.55,363.11,88.83Z"/><path class="cls-3" d="M425.2,363.61l9.94,7.43,68.53-114.57L435.14,141l-9.94,8.36c21.28,29.17,34.06,66.48,34.06,107.15S446.48,334.44,425.2,363.61Z"/><path class="cls-3" d="M147.89,425.31l-7.43,9.94L255,503.78l115.51-68.53-8.36-9.94C333,446.59,295.7,459.37,255,459.37S177.06,446.59,147.89,425.31Z"/></svg>