<svg id="Layer_1" data-name="Layer 1" xmlns="http://www.w3.org/2000/svg" viewBox="0 0 512 512"><defs><style>.cls-1,.cls-2{fill:none;stroke:#fff;stroke-miterlimit:10;}.cls-1{stroke-width:15px;}.cls-2{stroke-width:20px;}.cls-3{fill:#fff;}</style></defs><circle class="cls-1" cx="256" cy="256" r="117.48"/><circle class="cls-2" cx="256" cy="256" r="174.64"/><path class="cls-3" d="M214.8,308.55V198.79h49.47a31.9,31.9,0,0,1,14.3,3.24,37.94,37.94,0,0,1,11.36,8.51,40,40,0,0,1,7.5,11.9,35.48,35.48,0,0,1,2.7,13.45,38.09,38.09,0,0,1-4.79,18.71,33.24,33.24,0,0,1-5.64,7.49,33.86,33.86,0,0,1-7.5,5.65l24.12,40.81h-28.6l-21-35.4H240.15v35.4ZM240.15,251h23.19c3,0,5.57-1.41,7.73-4.25s3.25-6.47,3.25-10.9-1.24-8.14-3.71-10.82-5.16-4-8-4H240.15Z"/></svg>