<svg id="Layer_1" data-name="Layer 1" xmlns="http://www.w3.org/2000/svg" viewBox="0 0 512 512"><defs><style>.cls-1{fill:none;stroke:#fff;stroke-miterlimit:10;stroke-width:27px;}.cls-2{fill:#fff;}</style></defs><path class="cls-1" d="M66.65,207.86l53.58-53.59a42.67,42.67,0,0,1,27.85-12.48c50.9-2.74,207-4.61,293.92,67l17.37,124.73a33.13,33.13,0,0,1-32.81,37.7H109.13a30,30,0,0,1-27.38-17.73C72,331.63,56.82,291.91,52.53,247.08A48.91,48.91,0,0,1,66.65,207.86Z"/><path class="cls-2" d="M181.73,306.29V208.41h44.12a28.41,28.41,0,0,1,12.75,2.89,33.89,33.89,0,0,1,10.13,7.59,35.44,35.44,0,0,1,6.69,10.61,31.54,31.54,0,0,1,2.41,12,34.1,34.1,0,0,1-4.27,16.68,30.1,30.1,0,0,1-5,6.68,29.78,29.78,0,0,1-6.69,5l21.5,36.4h-25.5l-18.75-31.57H204.34v31.57ZM204.34,255H225q4,0,6.89-3.8a15.53,15.53,0,0,0,2.9-9.71c0-4.05-1.11-7.26-3.31-9.66s-4.6-3.58-7.17-3.58h-20Z"/><path class="cls-2" d="M355,281.2a22.22,22.22,0,0,1-2.62,11,22.79,22.79,0,0,1-7.16,7.79,34.28,34.28,0,0,1-10.62,4.69,50.88,50.88,0,0,1-12.82,1.58H274.1V208.41h54.45a19.46,19.46,0,0,1,9.24,2.2,23.07,23.07,0,0,1,7,5.72,26.46,26.46,0,0,1,4.48,8,27.27,27.27,0,0,1,1.59,9.17,26.32,26.32,0,0,1-3.52,13.23,22.15,22.15,0,0,1-10.55,9.38,25.33,25.33,0,0,1,13.31,8.82Q355,271.28,355,281.2Zm-58.31-53.49V248H318.9a9.86,9.86,0,0,0,6.62-2.48q2.89-2.48,2.9-7.72c0-3.21-.86-5.69-2.55-7.44a8.27,8.27,0,0,0-6.14-2.62ZM332,276.65a11.7,11.7,0,0,0-2.62-7.72,8.24,8.24,0,0,0-6.62-3.17H296.71v21.37H321.8a9.93,9.93,0,0,0,7.31-2.9A10.28,10.28,0,0,0,332,276.65Z"/></svg>