<?xml version="1.0" encoding="UTF-8" standalone="no"?>
<svg
   id="Layer_1"
   data-name="Layer 1"
   viewBox="0 0 1024 1024"
   version="1.1"
   sodipodi:docname="appicon.svg"
   inkscape:version="1.1.1 (c3084ef, 2021-09-22)"
   inkscape:export-filename="appicon-text.png"
   inkscape:export-xdpi="174.45"
   inkscape:export-ydpi="174.45"
   width="1024"
   height="1024"
   xmlns:inkscape="http://www.inkscape.org/namespaces/inkscape"
   xmlns:sodipodi="http://sodipodi.sourceforge.net/DTD/sodipodi-0.dtd"
   xmlns="http://www.w3.org/2000/svg"
   xmlns:svg="http://www.w3.org/2000/svg">
  <sodipodi:namedview
     id="namedview123"
     pagecolor="#ffffff"
     bordercolor="#666666"
     borderopacity="1.0"
     inkscape:pageshadow="2"
     inkscape:pageopacity="0.0"
     inkscape:pagecheckerboard="0"
     showgrid="false"
     inkscape:zoom="0.38722455"
     inkscape:cx="293.11158"
     inkscape:cy="610.75674"
     inkscape:window-width="1440"
     inkscape:window-height="847"
     inkscape:window-x="0"
     inkscape:window-y="25"
     inkscape:window-maximized="0"
     inkscape:current-layer="Layer_1"
     width="1024px" />
  <defs
     id="defs94">
    <style
       id="style92">.cls-1{fill:#c957e6;}.cls-2{fill:#1a9fff;}</style>
    <mask
       maskUnits="userSpaceOnUse"
       id="mask1468">
      <g
         id="g1474">
        <path
           class="cls-1"
           d="m 595.81,542.1 h -0.06 L 620,567 605.7,581 580.25,555 A 138.86,138.86 0 0 1 399.33,346 l 41.07,41 151.07,150.77 z"
           id="path1470"
           style="fill:#ffffff;fill-opacity:1;stroke:none;stroke-width:0;stroke-miterlimit:4;stroke-dasharray:none" />
        <path
           d="M 500,555.45 A 113.89,113.89 0 0 1 401.87,383.81 L 557.94,539.63 A 113.13,113.13 0 0 1 500,555.45 Z"
           id="path1472" />
      </g>
    </mask>
    <mask
       maskUnits="userSpaceOnUse"
       id="mask1628">
      <g
         id="g1634">
        <path
           class="cls-2"
           d="m 638.86,441.59 a 138.27,138.27 0 0 1 -29.59,85.69 L 414.13,332.46 a 138.86,138.86 0 0 1 224.73,109.13 z"
           id="path1630"
           style="fill:#ffffff;fill-opacity:1;stroke:none;stroke-width:0;stroke-miterlimit:4;stroke-dasharray:none" />
        <path
           d="M 454.29,337.24 A 114,114 0 0 1 604.43,487.12 Z"
           id="path1632" />
      </g>
    </mask>
    <linearGradient
       id="paint0_linear"
       x1="512"
       y1="100"
       x2="512"
       y2="924"
       gradientUnits="userSpaceOnUse"
       gradientTransform="translate(0,-8)">
      <stop
         stop-color="#F3F3F3"
         id="stop1008" />
      <stop
         offset="1"
         stop-color="#AFA894"
         id="stop1010"
         style="stop-color:#afafb4;stop-opacity:1" />
    </linearGradient>
    <filter
       id="filter0_d"
       x="78"
       y="86"
       width="868"
       height="868"
       filterUnits="userSpaceOnUse"
       color-interpolation-filters="sRGB">
      <feFlood
         flood-opacity="0"
         result="BackgroundImageFix"
         id="feFlood976" />
      <feColorMatrix
         in="SourceAlpha"
         type="matrix"
         values="0 0 0 0 0 0 0 0 0 0 0 0 0 0 0 0 0 0 127 0"
         id="feColorMatrix978" />
      <feMorphology
         radius="2"
         operator="dilate"
         in="SourceAlpha"
         result="effect1_dropShadow"
         id="feMorphology980" />
      <feOffset
         dy="8"
         id="feOffset982" />
      <feGaussianBlur
         stdDeviation="10"
         id="feGaussianBlur984" />
      <feColorMatrix
         type="matrix"
         values="0 0 0 0 0 0 0 0 0 0 0 0 0 0 0 0 0 0 0.25 0"
         id="feColorMatrix986" />
      <feBlend
         mode="normal"
         in2="BackgroundImageFix"
         result="effect1_dropShadow"
         id="feBlend988" />
      <feBlend
         mode="normal"
         in="SourceGraphic"
         in2="effect1_dropShadow"
         result="shape"
         id="feBlend990" />
    </filter>
    <filter
       style="color-interpolation-filters:sRGB;"
       inkscape:label="Drop Shadow"
       id="filter2483"
       x="-0.01277728"
       y="-0.018247724"
       width="1.0255546"
       height="1.0517019">
      <feFlood
         flood-opacity="0.25098"
         flood-color="rgb(0,0,0)"
         result="flood"
         id="feFlood2473" />
      <feComposite
         in="flood"
         in2="SourceGraphic"
         operator="in"
         result="composite1"
         id="feComposite2475" />
      <feGaussianBlur
         in="composite1"
         stdDeviation="3"
         result="blur"
         id="feGaussianBlur2477" />
      <feOffset
         dx="0"
         dy="6"
         result="offset"
         id="feOffset2479" />
      <feComposite
         in="SourceGraphic"
         in2="offset"
         operator="over"
         result="composite2"
         id="feComposite2481" />
    </filter>
  </defs>
  <rect
     x="100"
     y="92"
     width="824"
     height="824"
     rx="179"
     fill="url(#paint0_linear)"
     id="rect944"
     style="fill:url(#paint0_linear);filter:url(#filter0_d)" />
  <g
     id="g2233"
     transform="matrix(1.5628748,0,0,1.5628748,-269.43724,-269.4541)"
     style="filter:url(#filter2483)">
    <g
       id="g1644"
       inkscape:label="text">
      <path
         class="cls-1"
         d="m 288.29,690.29 a 26.26,26.26 0 0 1 -10.86,4.62 57.18,57.18 0 0 1 -13.84,1.63 q -21.18,0 -33.39,-13 -12,-13 -11.95,-35.84 0.05,-22.84 11.95,-36.1 12.75,-13.3 33.39,-13.3 20.36,0 33.39,13.3 12.21,13.57 12.21,36.1 a 62.12,62.12 0 0 1 -2.44,17.92 37.93,37.93 0 0 1 -7.6,14.39 l 10.31,9.77 -5.16,5.16 c -1.81,1.8 -3.71,2.58 -5.7,2.3 a 9.23,9.23 0 0 1 -4.88,-2 z m -13.57,-12.76 -9.78,-9.5 3.26,-3.53 a 9.37,9.37 0 0 1 5.84,-3 8.45,8.45 0 0 1 6.1,1.08 l 5.43,4.35 a 39.81,39.81 0 0 0 3.26,-8.69 c 0.18,-1.63 0.41,-3.3 0.68,-5 a 35.89,35.89 0 0 0 0.41,-5.57 q 0,-15.2 -7.06,-24.16 -7.07,-8.4 -19.27,-8.41 -12.49,0 -19.28,8.41 -6.79,8.41 -6.79,24.16 0,15.75 6.79,23.89 6.78,8.41 19.28,8.42 a 23.3,23.3 0 0 0 6,-0.55 27.59,27.59 0 0 0 5.13,-1.9 z"
         id="path98" />
      <path
         class="cls-1"
         d="m 376.78,622.16 v 42.34 q 0,19.29 -10,25.25 a 42.27,42.27 0 0 1 -22,6 43.6,43.6 0 0 1 -21.31,-6.51 q -9.63,-6 -9.63,-24.71 v -42.37 h 19 v 46.14 q 0,6.53 3.8,9.51 a 13.66,13.66 0 0 0 8.68,3 14.26,14.26 0 0 0 8.83,-3 q 3.93,-3 3.93,-9.51 v -36.91 a 9.12,9.12 0 0 1 2.58,-6.52 8.77,8.77 0 0 1 6.65,-2.71 z"
         id="path100" />
      <path
         class="cls-1"
         d="m 381.4,601 h 9.77 a 9.27,9.27 0 0 1 9.23,9.23 v 5.7 h -19 z m 0,21.18 h 9.77 a 9.25,9.25 0 0 1 9.23,9.23 v 63 h -19 z"
         id="path102" />
      <path
         class="cls-1"
         d="m 457,672.1 h 13.57 q -3,11.42 -11.4,17.38 -8.42,6.24 -21.18,6.24 -15.47,0 -24.16,-10 -8.68,-9.78 -8.68,-28 0,-17.37 8.41,-27.15 8.69,-10 24.16,-10 16.29,0 25.25,9.77 a 37.23,37.23 0 0 1 7.03,13.8 h -19 a 16,16 0 0 0 -2.71,-4.07 q -3.54,-3.8 -10,-3.8 a 13.24,13.24 0 0 0 -9.78,3.8 q -4.89,5.43 -4.88,17.92 0.01,12.49 4.88,17.64 3.49,4.37 10.57,4.37 a 15.44,15.44 0 0 0 7.87,-1.9 3.82,3.82 0 0 0 1.49,-1 l 1.5,-1.5 a 11.94,11.94 0 0 1 2.17,-2.17 7.51,7.51 0 0 1 4.89,-1.33 z"
         id="path104" />
      <path
         class="cls-1"
         d="m 492.56,622.16 v 26.6 l 23.07,-26.6 h 22.8 l -25.78,27.68 26.05,44.52 h -22.8 l -13.3,-24.43 q -4.07,-7.32 -7.06,-6.24 c -2,0.73 -3,1.81 -3,3.26 v 27.41 h -19 V 601 h 9.78 a 8.88,8.88 0 0 1 6.51,2.72 8.58,8.58 0 0 1 2.72,6.24 z"
         id="path106" />
      <path
         class="cls-2"
         d="m 547.52,694.36 v -83.61 a 9.73,9.73 0 0 1 9.77,-9.77 h 26.88 q 21.44,0 32,11.4 10.59,12 10.59,35.29 A 63.3,63.3 0 0 1 623,670.2 q -4.35,10.32 -11.4,15.75 a 37.07,37.07 0 0 1 -12.76,6.51 q -6.52,1.9 -19.82,1.9 z m 18.73,-16.83 h 15.48 q 13.29,0 19.54,-7 6,-6.53 6,-22.81 0,-15.74 -5.7,-23.07 -5.43,-7.33 -17.37,-7.33 h -17.95 z"
         id="path108" />
      <path
         class="cls-2"
         d="m 665.21,601 h 15.2 l 33.93,93.38 H 694 l -6.24,-19.27 h -36.4 l -6,19.27 H 625 l 31,-87.13 q 2.43,-6.25 9.21,-6.25 z m 4.34,18.73 -13,39.64 h 26.06 z"
         id="path110" />
      <path
         class="cls-2"
         d="M 731.53,694.36 699.23,601 h 21.44 l 19.82,69.77 18.19,-62.77 q 1.62,-7 9.22,-7.06 h 13.85 L 750,694.36 Z"
         id="path112" />
    </g>
    <g
       id="g1648"
       inkscape:label="logo">
      <path
         class="cls-2"
         d="m 638.86,441.59 a 138.27,138.27 0 0 1 -29.59,85.69 L 414.13,332.46 a 138.86,138.86 0 0 1 224.73,109.13 z"
         id="path114"
         mask="url(#mask1628)"
         inkscape:label="logo D" />
      <path
         class="cls-1"
         d="m 595.81,542.1 h -0.06 L 620,567 605.7,581 580.25,555 A 138.86,138.86 0 0 1 399.33,346 l 41.07,41 151.07,150.77 z"
         id="path118"
         mask="url(#mask1468)"
         inkscape:label="logo Q" />
    </g>
  </g>
</svg>
