<?xml version="1.0" encoding="UTF-8" standalone="no"?>
<svg
   id="Layer_1"
   data-name="Layer 1"
   viewBox="0 0 300 300"
   version="1.1"
   sodipodi:docname="icon.svg"
   inkscape:version="1.1.1 (c3084ef, 2021-09-22)"
   width="300"
   height="300"
   inkscape:export-filename="/Users/hperrin/repos/quickdav/icon.png"
   inkscape:export-xdpi="327.67999"
   inkscape:export-ydpi="327.67999"
   xmlns:inkscape="http://www.inkscape.org/namespaces/inkscape"
   xmlns:sodipodi="http://sodipodi.sourceforge.net/DTD/sodipodi-0.dtd"
   xmlns="http://www.w3.org/2000/svg"
   xmlns:svg="http://www.w3.org/2000/svg">
  <sodipodi:namedview
     id="namedview123"
     pagecolor="#ffffff"
     bordercolor="#666666"
     borderopacity="1.0"
     inkscape:pageshadow="2"
     inkscape:pageopacity="0.0"
     inkscape:pagecheckerboard="0"
     showgrid="false"
     inkscape:zoom="1.602"
     inkscape:cx="95.817728"
     inkscape:cy="165.10612"
     inkscape:window-width="1920"
     inkscape:window-height="1027"
     inkscape:window-x="1280"
     inkscape:window-y="25"
     inkscape:window-maximized="0"
     inkscape:current-layer="Layer_1"
     width="250px" />
  <defs
     id="defs94">
    <style
       id="style92">.cls-1{fill:#c957e6;}.cls-2{fill:#1a9fff;}</style>
    <mask
       maskUnits="userSpaceOnUse"
       id="mask1468">
      <g
         id="g1474">
        <path
           class="cls-1"
           d="m 595.81,542.1 h -0.06 L 620,567 605.7,581 580.25,555 A 138.86,138.86 0 0 1 399.33,346 l 41.07,41 151.07,150.77 z"
           id="path1470"
           style="fill:#ffffff;fill-opacity:1;stroke:none;stroke-width:0;stroke-miterlimit:4;stroke-dasharray:none" />
        <path
           d="M 500,555.45 A 113.89,113.89 0 0 1 401.87,383.81 L 557.94,539.63 A 113.13,113.13 0 0 1 500,555.45 Z"
           id="path1472" />
      </g>
    </mask>
    <mask
       maskUnits="userSpaceOnUse"
       id="mask1628">
      <g
         id="g1634">
        <path
           class="cls-2"
           d="m 638.86,441.59 a 138.27,138.27 0 0 1 -29.59,85.69 L 414.13,332.46 a 138.86,138.86 0 0 1 224.73,109.13 z"
           id="path1630"
           style="fill:#ffffff;fill-opacity:1;stroke:none;stroke-width:0;stroke-miterlimit:4;stroke-dasharray:none" />
        <path
           d="M 454.29,337.24 A 114,114 0 0 1 604.43,487.12 Z"
           id="path1632" />
      </g>
    </mask>
  </defs>
  <g
     id="g1648"
     inkscape:label="logo"
     transform="translate(-349.95056,-291.86291)">
    <path
       class="cls-2"
       d="m 638.86,441.59 a 138.27,138.27 0 0 1 -29.59,85.69 L 414.13,332.46 a 138.86,138.86 0 0 1 224.73,109.13 z"
       id="path114"
       mask="url(#mask1628)"
       inkscape:label="logo D" />
    <path
       class="cls-1"
       d="m 595.81,542.1 h -0.06 L 620,567 605.7,581 580.25,555 A 138.86,138.86 0 0 1 399.33,346 l 41.07,41 151.07,150.77 z"
       id="path118"
       mask="url(#mask1468)"
       inkscape:label="logo Q" />
  </g>
</svg>
